<?xml version="1.0" encoding="UTF-8"?>
<svg xmlns="http://www.w3.org/2000/svg" width="800" height="600" viewBox="0 0 800 600">
  <defs>
    <style>
      .track-path { fill: none; stroke: #3b82f6; stroke-width: 2; }
      .start-point { fill: #10b981; r: 4; }
      .end-point { fill: #ef4444; r: 4; }
      .grid { stroke: #e5e7eb; stroke-width: 0.5; }
      .label { font-family: monospace; font-size: 12px; fill: #666; }
    </style>
  </defs>

  <!-- Grid -->
  <line class="grid" x1="0" y1="0" x2="800" y2="0" />
  <line class="grid" x1="0" y1="0" x2="0" y2="600" />
  <line class="grid" x1="800" y1="0" x2="800" y2="600" />
  <line class="grid" x1="0" y1="600" x2="800" y2="600" />

  <!-- Raw telemetry path -->
  <polyline class="track-path" points="66.67,550.00 67.01,549.77 561.66,262.30 561.66,262.30 561.66,262.30 561.66,262.30 561.66,262.30 561.66,262.30 561.66,262.30 561.66,262.30 561.66,262.30 561.67,262.30 561.68,262.29 561.69,262.29 561.70,262.28 561.72,262.27 561.73,262.26 561.76,262.25 561.78,262.24 561.80,262.23 561.83,262.21 561.86,262.20 561.89,262.18 561.92,262.17 561.96,262.15 561.99,262.13 562.03,262.11 562.07,262.09 562.12,262.07 562.16,262.05 562.21,262.03 562.26,262.00 562.31,261.98 562.36,261.95 562.41,261.93 562.47,261.90 562.53,261.87 562.59,261.84 562.65,261.81 562.71,261.78 562.78,261.75 562.85,261.71 562.91,261.68 562.99,261.64 563.06,261.61 563.14,261.57 563.21,261.53 563.29,261.49 563.38,261.45 563.46,261.41 563.54,261.37 563.63,261.33 563.72,261.28 561.66,262.30 562.66,261.80 563.66,261.31 564.66,260.81 565.66,260.31 566.65,259.82 567.64,259.32 568.62,258.82 569.60,258.32 570.58,257.82 571.55,257.32 572.51,256.82 573.48,256.32 574.44,255.82 575.40,255.32 576.36,254.82 577.32,254.32 578.27,253.82 579.22,253.31 580.17,252.81 581.11,252.31 582.05,251.80 582.98,251.30 583.91,250.79 584.85,250.29 585.77,249.78 586.86,249.19 587.94,248.60 589.32,247.84 590.24,247.33 591.15,246.82 592.06,246.31 592.96,245.80 593.87,245.29 594.77,244.78 595.67,244.27 596.57,243.76 597.47,243.25 598.36,242.74 599.25,242.23 600.14,241.71 601.03,241.20 601.91,240.69 602.78,240.17 603.66,239.66 604.53,239.14 605.40,238.63 606.27,238.11 607.14,237.59 608.00,237.08 608.87,236.56 609.73,236.04 610.58,235.53 611.44,235.01 612.29,234.49 613.13,233.97 613.98,233.45 614.82,232.93 615.66,232.41 616.50,231.89 617.34,231.37 618.17,230.85 619.00,230.33 619.83,229.80 620.65,229.28 621.47,228.76 622.29,228.23 623.10,227.71 623.91,227.19 624.72,226.66 625.53,226.14 626.33,225.61 627.13,225.08 627.93,224.56 628.72,224.03 629.51,223.50 630.30,222.98 631.08,222.45 631.86,221.92 632.64,221.39 633.41,220.86 634.18,220.33 634.95,219.80 635.72,219.27 636.48,218.74 637.23,218.21 637.98,217.68 638.73,217.15 639.47,216.61 640.21,216.08 640.95,215.55 641.68,215.01 642.41,214.48 643.13,213.94 643.85,213.41 644.57,212.87 645.28,212.34 645.99,211.80 646.68,211.26 647.38,210.73 648.07,210.19 648.75,209.65 649.43,209.11 650.11,208.57 650.78,208.03 651.45,207.49 652.11,206.95 652.77,206.41 653.42,205.87 654.07,205.33 654.70,204.79 655.33,204.25 655.95,203.70 656.57,203.16 657.18,202.62 657.79,202.07 658.39,201.53 658.99,200.98 659.58,200.44 660.16,199.89 660.74,199.35 661.30,198.80 661.86,198.25 662.42,197.70 662.96,197.16 663.50,196.61 664.03,196.06 664.56,195.51 665.07,194.96 665.58,194.41 666.09,193.86 666.59,193.31 667.08,192.76 667.56,192.21 668.02,191.65 668.48,191.10 668.92,190.55 669.36,189.99 669.79,189.44 670.21,188.89 670.63,188.33 671.03,187.78 671.43,187.22 671.81,186.67 672.19,186.11 672.56,185.55 672.91,185.00 673.25,184.44 673.58,183.88 673.90,183.32 674.21,182.76 674.52,182.20 674.81,181.64 675.09,181.09 675.37,180.53 675.63,179.96 675.89,179.40 676.13,178.84 676.37,178.28 676.59,177.72 676.79,177.16 676.98,176.60 677.17,176.03 677.34,175.47 677.50,174.91 677.65,174.34 677.79,173.78 677.92,173.21 678.04,172.65 678.15,172.08 678.24,171.52 678.32,170.95 678.39,170.39 678.45,169.82 678.49,169.26 678.52,168.69 678.54,168.12 678.55,167.56 678.55,166.99 678.53,166.42 678.51,165.85 678.48,165.29 678.44,164.72 678.38,164.15 678.31,163.58 678.23,163.01 678.13,162.45 678.02,161.88 677.90,161.31 677.78,160.74 677.64,160.17 677.49,159.60 677.33,159.03 677.16,158.46 676.98,157.89 676.78,157.32 676.58,156.75 676.36,156.18 676.13,155.61 675.89,155.04 675.64,154.47 675.38,153.90 675.12,153.33 674.86,152.75 674.60,152.18 674.34,151.61 674.06,151.04 673.79,150.47 673.51,149.90 673.23,149.33 672.94,148.75 672.63,148.18 672.32,147.61 672.00,147.04 671.68,146.48 671.34,145.91 671.00,145.34 670.67,144.77 670.33,144.20 670.00,143.64 669.67,143.07 669.34,142.51 669.00,141.94 668.67,141.38 668.34,140.82 668.01,140.26 667.69,139.69 667.39,139.13 667.10,138.57 666.82,138.02 666.54,137.46 666.26,136.90 665.98,136.34 665.70,135.78 665.43,135.22 665.16,134.66 664.89,134.11 664.62,133.55 664.35,133.00 664.08,132.44 663.82,131.89 663.55,131.33 663.30,130.78 663.04,130.23 662.80,129.68 662.56,129.13 662.33,128.59 662.11,128.05 661.90,127.51 661.69,126.97 661.26,125.82 660.63,123.95 660.40,123.07 660.28,122.54 660.17,122.01 660.07,121.49 659.98,120.96 659.88,120.44 659.80,119.92 659.72,119.39 659.63,118.87 659.55,118.35 659.48,117.83 659.41,117.31 659.35,116.80 659.31,116.28 659.28,115.77 659.25,115.26 659.24,114.75 659.23,114.24 659.23,113.73 659.23,113.22 659.24,112.71 659.26,112.21 659.27,111.70 659.28,111.20 659.31,110.70 659.34,110.19 659.38,109.70 659.43,109.20 659.49,108.70 659.56,108.20 659.63,107.71 659.71,107.21 659.79,106.72 659.88,106.23 659.97,105.74 660.06,105.25 660.16,104.76 660.26,104.27 660.37,103.78 660.50,103.30 660.63,102.82 660.77,102.33 660.91,101.85 661.06,101.37 661.22,100.89 661.38,100.41 661.55,99.94 661.72,99.46 661.89,98.98 662.06,98.51 662.24,98.04 662.42,97.57 662.62,97.10 662.82,96.63 663.03,96.16 663.24,95.69 663.46,95.23 663.69,94.76 663.92,94.30 664.16,93.84 664.40,93.37 664.64,92.91 664.88,92.45 665.13,92.00 665.39,91.54 665.65,91.08 665.91,90.63 666.19,90.18 666.47,89.72 666.75,89.27 667.04,88.82 667.34,88.37 667.64,87.92 667.94,87.48 668.24,87.03 668.55,86.59 668.86,86.14 669.18,85.70 669.50,85.26 669.83,84.82 670.17,84.38 670.51,83.94 670.85,83.51 671.20,83.07 671.56,82.64 671.91,82.20 672.27,81.77 672.64,81.34 673.01,80.91 673.39,80.48 673.77,80.05 674.15,79.62 674.54,79.20 674.93,78.77 675.33,78.35 675.73,77.93 676.13,77.51 676.54,77.09 676.95,76.67 677.37,76.25 677.78,75.83 678.20,75.42 678.63,75.00 679.06,74.59 679.49,74.17 679.93,73.76 680.37,73.35 680.82,72.94 681.27,72.54 681.72,72.13 682.18,71.72 682.64,71.32 683.10,70.91 683.57,70.51 684.05,70.11 684.92,69.38 685.40,68.98 685.88,68.58 686.37,68.18 686.86,67.79 687.35,67.39 687.84,67.00 688.34,66.61 688.84,66.22 689.34,65.83 689.85,65.44 690.36,65.05 690.87,64.67 691.39,64.28 691.91,63.90 692.43,63.51 692.95,63.13 693.47,62.75 694.00,62.37 694.53,61.99 695.07,61.61 695.61,61.24 696.15,60.86 696.70,60.49 697.24,60.11 697.79,59.74 698.34,59.37 698.89,59.00 699.44,58.63 700.00,58.26 700.56,57.89 701.12,57.53 701.69,57.16 702.26,56.80 702.84,56.44 704.77,55.24 705.35,54.88 705.93,54.52 706.51,54.17 707.09,53.81 707.67,53.46 708.26,53.11 708.84,52.75 709.43,52.40 710.01,52.05 710.60,51.71 711.19,51.36 711.77,51.01 712.36,50.66 712.85,50.45 713.35,50.24 713.74,50.17 714.11,50.12 714.47,50.08 714.83,50.04 715.19,50.00 715.58,50.00 715.98,50.01 716.38,50.02 716.78,50.03 717.18,50.03 717.59,50.04 718.00,50.05 718.40,50.06 718.81,50.07 719.22,50.08 719.62,50.09 720.03,50.10 720.43,50.11 720.83,50.12 721.23,50.12 721.62,50.13 722.01,50.14 722.39,50.14 722.77,50.15 723.14,50.15 723.50,50.16 723.86,50.16 724.21,50.16 724.54,50.17 724.87,50.17 725.18,50.17 725.47,50.18 725.76,50.18 726.02,50.18 726.28,50.18 727.30,50.19 727.52,50.19 727.73,50.20 727.95,50.20 728.16,50.20 728.37,50.20 728.58,50.20 728.78,50.20 728.98,50.20 729.18,50.20 729.38,50.20 729.56,50.20 729.75,50.20 729.92,50.20 730.10,50.21 730.26,50.21 730.42,50.21 730.58,50.21 730.73,50.22 730.87,50.22 731.01,50.22 731.14,50.23 731.27,50.23 731.40,50.24 731.52,50.24 731.63,50.25 731.75,50.25 732.69,50.34 732.75,50.35 732.82,50.36 732.87,50.37 732.93,50.38 732.98,50.39 733.03,50.41 733.07,50.42 733.11,50.44 733.15,50.45 733.18,50.46 733.21,50.48 733.24,50.50 733.26,50.51 733.28,50.53 733.30,50.55 733.31,50.57 733.32,50.58 733.33,50.60 733.33,50.62 733.33,50.64 733.33,50.66 733.33,50.68 733.32,50.71 733.32,50.73 733.31,50.75 733.29,50.77 733.28,50.80 733.26,50.82 733.24,50.85 733.23,50.87 733.20,50.90 733.18,50.92 733.16,50.95 733.13,50.98 733.11,51.00 733.08,51.03 733.05,51.06 733.02,51.09 732.99,51.12 732.96,51.15 732.92,51.18 732.89,51.21 732.85,51.24 732.81,51.27 732.77,51.31 732.73,51.34 732.69,51.37 732.64,51.41 732.59,51.44 732.54,51.48 732.49,51.51 732.43,51.55 732.37,51.58 732.31,51.62 732.25,51.66 732.19,51.70 732.12,51.74 732.06,51.78 731.98,51.82 731.91,51.86 731.83,51.90 731.75,51.94 731.67,51.98 731.58,52.03 731.49,52.07 731.40,52.11 731.30,52.16 731.20,52.20 731.09,52.25 730.98,52.30 730.87,52.34 730.75,52.39 730.62,52.44 730.49,52.49 730.36,52.54 730.21,52.59 730.06,52.65 729.90,52.70 729.74,52.75 729.57,52.81 729.39,52.86 729.20,52.92 729.01,52.97 728.80,53.03 728.59,53.09 728.37,53.15 728.15,53.20 727.91,53.26 727.67,53.32 727.41,53.38 727.15,53.44 726.88,53.50 726.60,53.55 726.31,53.61 726.01,53.67 725.70,53.73 725.38,53.79 725.05,53.85 724.72,53.91 724.37,53.97 724.01,54.03 723.65,54.09 723.27,54.14 722.89,54.20 722.49,54.26 722.09,54.31 721.68,54.37 721.26,54.42 720.83,54.48 720.40,54.53 719.95,54.59 719.50,54.64 719.04,54.69 718.58,54.74 718.10,54.79 717.62,54.84 717.14,54.89 716.65,54.93 716.15,54.98 715.65,55.02 715.14,55.07 714.63,55.11 714.11,55.15 713.59,55.19 713.07,55.23 712.54,55.26 712.01,55.30 711.48,55.33 710.95,55.36 710.42,55.40 709.89,55.43 709.36,55.46 708.83,55.48 708.30,55.51 707.77,55.53 707.25,55.56 706.73,55.58 706.21,55.60 705.70,55.62 705.19,55.64 704.69,55.65 704.19,55.67 703.70,55.69 703.22,55.70 702.75,55.71 702.28,55.72 701.82,55.74 701.36,55.75 700.91,55.75 700.46,55.76 700.02,55.77 699.58,55.78 699.14,55.78 698.71,55.79 698.29,55.79 697.87,55.79 697.46,55.79 697.05,55.79 696.66,55.79 696.27,55.79 695.88,55.79 695.51,55.79 695.14,55.79 694.78,55.79 694.43,55.79 694.08,55.79 693.75,55.79 693.42,55.78 693.10,55.78 692.78,55.78 692.48,55.78 692.18,55.77 691.89,55.77 691.61,55.77 691.34,55.77 691.07,55.77 690.81,55.76 690.56,55.76 690.32,55.76 690.08,55.76 689.85,55.76 689.63,55.76 689.41,55.76 689.20,55.76 689.00,55.77 688.81,55.77 688.62,55.77 688.44,55.78 688.26,55.78 688.10,55.78 687.93,55.79 687.78,55.79 687.63,55.80 687.49,55.81 687.35,55.82 687.22,55.82 687.10,55.83 686.98,55.84 686.87,55.85 686.76,55.87 686.66,55.88 686.57,55.89 686.48,55.91 686.40,55.92 686.32,55.94 686.25,55.95 686.18,55.97 686.11,55.99 686.06,56.01 686.00,56.02 685.96,56.05 685.91,56.07 685.87,56.09 685.84,56.11 685.81,56.14 685.78,56.16 685.76,56.19 685.75,56.21 685.74,56.24 685.74,56.27 685.74,56.30 685.74,56.33 685.75,56.36 685.76,56.39 685.77,56.42 685.79,56.45 685.80,56.49 685.82,56.52 685.85,56.56 685.87,56.60 685.90,56.64 685.93,56.67 685.97,56.71 686.01,56.75 686.05,56.80 686.10,56.84 686.15,56.88 686.20,56.92 686.26,56.97 686.32,57.01 686.39,57.06 686.46,57.11 686.53,57.16 686.61,57.20 686.80,57.31 686.90,57.36 686.98,57.41 687.11,57.47 687.22,57.52 687.32,57.56 687.46,57.63 687.59,57.68 687.71,57.73 687.88,57.79 688.03,57.85 688.16,57.90 688.35,57.96 688.53,58.02 688.68,58.07 688.90,58.14 689.09,58.20 689.26,58.24 689.51,58.31 689.73,58.37 689.92,58.42 690.19,58.49 690.44,58.55 690.65,58.60 690.95,58.66 691.22,58.72 691.45,58.77 691.79,58.84 692.09,58.90 692.34,58.94 692.71,59.01 693.03,59.07 694.21,59.26 694.87,59.36 695.24,59.41 695.62,59.46 696.01,59.51 696.40,59.56 696.80,59.61 697.20,59.66 697.61,59.71 698.03,59.75 698.45,59.80 698.87,59.84 699.30,59.88 699.73,59.92 700.17,59.97 700.60,60.00 701.04,60.04 701.48,60.08 701.92,60.12 702.37,60.15 702.81,60.18 703.26,60.21 703.70,60.24 704.14,60.27 704.58,60.30 705.02,60.33 705.46,60.35 705.89,60.37 706.32,60.40 706.74,60.42 707.16,60.44 707.57,60.46 707.98,60.47 708.38,60.49 708.78,60.51 709.18,60.52 709.58,60.54 709.98,60.55 710.37,60.56 710.76,60.57 711.14,60.58 711.53,60.59 711.91,60.59 712.29,60.60 712.67,60.60 713.04,60.61 713.41,60.61 713.77,60.61 714.14,60.62 714.49,60.62 714.85,60.62 715.20,60.62 715.55,60.62 715.89,60.62 716.24,60.62 716.58,60.62 716.92,60.61 717.26,60.61 717.59,60.61 717.91,60.60 718.23,60.60 718.54,60.60 718.85,60.59 719.15,60.59 719.44,60.58 719.73,60.58 720.01,60.57 720.28,60.57 720.54,60.56 720.80,60.56 721.05,60.56 721.29,60.55 721.53,60.55 721.77,60.54 722.00,60.54 722.23,60.54 722.46,60.53 722.68,60.53 722.89,60.53 723.11,60.52 723.31,60.52 723.52,60.52 723.72,60.52 723.91,60.51 724.10,60.51 724.29,60.51 724.47,60.51 724.65,60.51 724.82,60.51 724.99,60.51 725.15,60.51 725.31,60.51 725.47,60.51 725.61,60.51 725.76,60.51 725.90,60.51 726.04,60.52 726.17,60.52 726.30,60.52 726.43,60.53 726.55,60.53 726.67,60.53 726.78,60.54 726.89,60.54 726.99,60.55 727.09,60.56 727.19,60.56 727.28,60.57 727.37,60.58 727.45,60.58 727.53,60.59 727.61,60.60 727.68,60.61 727.75,60.62 727.82,60.63 727.88,60.64 727.94,60.65 727.99,60.66 728.04,60.68 728.09,60.69 728.13,60.70 728.17,60.71 728.20,60.73 728.23,60.74 728.26,60.76 728.28,60.77 728.31,60.79 728.32,60.80 728.34,60.82 728.35,60.84 728.36,60.85 728.37,60.87 728.38,60.89 728.38,60.91 728.39,60.93 728.39,60.95 728.39,60.97 728.38,60.99 728.38,61.01 728.37,61.03 728.37,61.05 728.35,61.07 728.34,61.10 728.33,61.12 728.31,61.14 728.29,61.17 728.27,61.19 728.24,61.22 728.22,61.24 728.19,61.27 728.15,61.30 728.12,61.33 728.08,61.35 728.04,61.38 728.00,61.41 727.96,61.44 727.91,61.47 727.86,61.50 727.81,61.53 727.76,61.56 727.71,61.59 727.65,61.62 727.58,61.66 727.52,61.69 727.45,61.72 727.38,61.76 727.31,61.79 727.23,61.82 727.15,61.86 727.08,61.89 727.00,61.93 726.91,61.96 726.83,62.00 726.74,62.03 726.65,62.07 726.55,62.11 726.45,62.14 726.35,62.18 726.24,62.22 726.13,62.26 726.01,62.30 725.89,62.33 725.77,62.37 725.64,62.41 725.51,62.45 725.37,62.49 725.23,62.53 725.09,62.57 724.95,62.61 724.81,62.65 724.66,62.69 724.51,62.73 724.35,62.78 724.19,62.82 724.03,62.86 723.87,62.90 723.70,62.94 723.52,62.98 723.34,63.02" />

  <!-- Start point (green) - first packet position -->
  <circle class="start-point" cx="66.67" cy="550.00" />

  <!-- End point (red) - last packet position -->
  <circle class="end-point" cx="723.34" cy="63.02" />

  <!-- Labels -->
  <text class="label" x="10" y="20">Raw Telemetry</text>
  <text class="label" x="10" y="40">Packets: 1009</text>
  <text class="label" x="10" y="60" font-size="10">X: 50-296</text>
  <text class="label" x="10" y="75" font-size="10">Z: -578-710</text>
</svg>