<svg xmlns="http://www.w3.org/2000/svg" viewBox="0 0 120 30" width="120" height="30">
  <path d="M101.087 30h.625v-2.893h.01L102.762 30h.54l1.04-2.893h.01V30h.625v-3.749h-.914l-1.008 2.935h-.01l-1.034-2.935h-.924V30zM97.627 26.818h1.187V30h.656v-3.182h1.192v-.567h-3.035v.567zM90 30h30L90 0H71.944L90 30zm-4.301-16.935H49.382c-11.068 0-13.005.587-17.746 5.328C27.202 22.826 20 30 20 30h15.732l3.753-3.753c2.468-2.468 3.74-2.723 8.921-2.723h26.834l10.458-10.459zM31.152 16.253c-3.274 3.09-10.399 10.01-14.239 13.747H0s13.552-13.513 21.085-20.928C28.846 1.685 32.714 0 46.949 0h51.815L87.545 11.219H48.001c-10.002 0-12.25.693-16.849 5.034z" fill="currentColor"/>
</svg>
