<svg xmlns="http://www.w3.org/2000/svg" viewBox="0 0 1000 610" width="1000" height="610">
  <g fill="currentColor">
    <path d="M202,195.6L68.1,404.4l183.4-24.1l100.7-157L202,195.6z"/>
    <path d="M423.5,0C355.2,0,305.1,35.6,277,79.6l-24.8,38.7h506.9c68.2,0,116.2-35.6,144.4-79.6L928.3,0H423.5z"/>
    <path d="M560.8,144.4l-95.8,149.4L572,279.9l86.9-135.5H560.8z"/>
    <path d="M688.8,144.4L605,275.2l71.8-9.3c14-1.8,39.2-12,54.2-35.4l55.2-86H688.8z"/>
    <path d="M101.4,144.4l-4.8,5.8l298.1,53.9l-68.9,107.7L432,298l98.5-153.6h-96.4L101.4,144.4z"/>
    <path d="M0,481.8v124.8h30.3v-39.1h85.6v-27.2H30.3v-31.8h89.9l17-26.7H0z"/>
    <path d="M651.3,481.8l-17,27h79l-79.4,98.1h135.5v-27h-77l79.4-98.1H651.3z"/>
    <path d="M897.5,481.8l-61.4,125.1h32.8l13.4-27.3h71.4l13.4,27.3h32.8l-61.4-125.1H897.5zM918,505.9l24.7,50.2h-49.3L918,505.9z"/>
    <path d="M265.7,479.5c-57,0-75.8,29.1-75.8,65.1c0,35.9,18.8,65.1,75.8,65.1s75.8-29.1,75.8-65.1C341.6,508.6,322.7,479.5,265.7,479.5zM265.7,505.7c36.7,0,44.9,17.4,44.9,38.9c0,21.5-8.2,38.9-44.9,38.9s-44.9-17.4-44.9-38.9C220.8,523.1,229,505.7,265.7,505.7z"/>
    <path d="M417.2,481.8v124.8h30.3v-98.4l57.2,0.3c15.7,0.1,21.3,8.2,21.3,19.2c0,11-5.6,18.9-21.3,18.9h-51.9l70.6,60h41.3l-47.5-38.7l1.9,0c21.3-2.7,37.3-20.8,37.3-42.9c0-23.9-18.9-43.2-42.8-43.2H417.2z"/>
  </g>
</svg>
